
<svg class="pathNameSvg" width="898.975" height="94.678" viewBox="0 0 898.975 94.678" xmlns="http://www.w3.org/2000/svg"><g id="svgGroup" stroke-linecap="round" fill-rule="evenodd" font-size="9pt" stroke="#000" stroke-width="0.25mm" fill="#fff" style="stroke:white;stroke-width:0.5mm;fill:none"  ><path d="M 47.217 3.906 L 60.645 57.422 L 71.582 3.906 L 83.838 3.906 L 67.432 75 L 55.615 75 L 42.09 23.096 L 28.271 75 L 16.406 75 L 0 3.906 L 12.256 3.906 L 23.291 57.324 L 36.865 3.906 L 47.217 3.906 Z M 742.822 22.168 L 753.809 58.643 L 762.207 22.168 L 773.779 22.168 L 759.375 75 L 749.609 75 L 738.281 38.721 L 727.148 75 L 717.383 75 L 702.93 22.168 L 714.502 22.168 L 723.047 58.252 L 733.887 22.168 L 742.822 22.168 Z M 361.182 75 L 339.795 44.287 L 331.738 52.832 L 331.738 75 L 319.385 75 L 319.385 3.906 L 331.738 3.906 L 331.738 37.256 L 338.574 28.809 L 359.375 3.906 L 374.316 3.906 L 347.9 35.4 L 375.83 75 L 361.182 75 Z M 150.098 75 L 134.424 52.344 L 129.15 57.764 L 129.15 75 L 117.285 75 L 117.285 0 L 129.15 0 L 129.15 43.262 L 132.861 38.623 L 147.461 22.168 L 161.719 22.168 L 142.09 44.189 L 163.818 75 L 150.098 75 Z M 866.162 75 L 850.488 52.344 L 845.215 57.764 L 845.215 75 L 833.35 75 L 833.35 0 L 845.215 0 L 845.215 43.262 L 848.926 38.623 L 863.525 22.168 L 877.783 22.168 L 858.154 44.189 L 879.883 75 L 866.162 75 Z M 417.236 59.912 L 423.633 66.016 Q 420.068 71.191 414.551 73.682 Q 410.614 76.215 408.774 78.372 A 11.11 11.11 0 0 0 408.496 78.711 A 9.464 9.464 0 0 0 407.36 80.519 A 6.687 6.687 0 0 0 406.689 83.398 A 4.565 4.565 0 0 0 406.867 84.733 Q 407.316 86.199 408.895 86.583 A 5.354 5.354 0 0 0 410.156 86.719 Q 412.305 86.719 414.551 85.596 L 415.576 92.529 A 15.078 15.078 0 0 1 408.422 94.656 A 18.219 18.219 0 0 1 407.52 94.678 Q 402.881 94.678 400.049 91.992 Q 397.217 89.307 397.217 84.863 Q 397.217 79.883 401.123 75.879 A 26.829 26.829 0 0 1 392.73 74.055 A 22.768 22.768 0 0 1 384.644 68.53 A 23.934 23.934 0 0 1 378.348 55.427 A 32.279 32.279 0 0 1 377.979 51.318 L 377.979 48.486 A 35.138 35.138 0 0 1 378.84 40.557 A 28.761 28.761 0 0 1 381.03 34.351 A 24.03 24.03 0 0 1 386.244 27.23 A 22.547 22.547 0 0 1 389.6 24.658 A 22.655 22.655 0 0 1 401.904 21.191 A 27.141 27.141 0 0 1 408.743 22.005 A 18.839 18.839 0 0 1 418.579 28.076 Q 423.526 33.865 424.314 43.693 A 48.424 48.424 0 0 1 424.463 47.559 L 424.463 52.344 L 389.941 52.344 A 20.067 20.067 0 0 0 390.836 56.953 A 14.162 14.162 0 0 0 394.312 62.695 A 12.964 12.964 0 0 0 403.192 66.487 A 17.149 17.149 0 0 0 403.955 66.504 A 15.867 15.867 0 0 0 416.036 61.321 A 20.296 20.296 0 0 0 417.236 59.912 Z M 822.607 38.037 L 810.742 38.037 A 7.503 7.503 0 0 0 809.961 34.598 A 7.655 7.655 0 0 0 808.203 32.349 A 8.654 8.654 0 0 0 804.269 30.371 A 12.683 12.683 0 0 0 801.465 30.078 A 13.822 13.822 0 0 0 798.738 30.332 Q 797.061 30.67 795.742 31.455 A 8.175 8.175 0 0 0 795.093 31.885 Q 792.714 33.628 792.63 36.507 A 7.279 7.279 0 0 0 792.627 36.719 Q 792.627 39.255 794.602 40.741 A 6.312 6.312 0 0 0 794.922 40.967 A 9.76 9.76 0 0 0 796.362 41.725 Q 798.962 42.865 804.199 44.019 A 69.438 69.438 0 0 1 808.27 45.037 Q 810.315 45.619 812.016 46.269 A 27.599 27.599 0 0 1 815.161 47.681 Q 818.771 49.608 820.694 52.238 A 11.718 11.718 0 0 1 821.069 52.783 A 11.788 11.788 0 0 1 822.749 57.12 A 16.058 16.058 0 0 1 822.998 60.01 A 13.548 13.548 0 0 1 818.477 70.408 A 17.675 17.675 0 0 1 817.09 71.558 A 21.11 21.11 0 0 1 809.533 75.069 Q 806.62 75.806 803.211 75.945 A 39.49 39.49 0 0 1 801.611 75.977 A 30.76 30.76 0 0 1 795.291 75.353 A 24.468 24.468 0 0 1 790.039 73.633 A 20.946 20.946 0 0 1 785.277 70.646 A 17.581 17.581 0 0 1 782.129 67.187 A 15.686 15.686 0 0 1 779.587 61.319 A 15.094 15.094 0 0 1 779.297 58.35 L 790.82 58.35 A 10.216 10.216 0 0 0 791.381 61.228 A 7.799 7.799 0 0 0 793.994 64.819 A 10.287 10.287 0 0 0 797.753 66.62 Q 799.219 67.002 800.947 67.073 A 19.576 19.576 0 0 0 801.758 67.09 A 19.752 19.752 0 0 0 804.406 66.924 Q 805.71 66.747 806.777 66.381 A 7.914 7.914 0 0 0 808.887 65.308 A 6.269 6.269 0 0 0 810.445 63.713 A 5.433 5.433 0 0 0 811.328 60.645 A 6.095 6.095 0 0 0 810.945 58.436 Q 810.376 56.96 808.962 55.974 A 6.928 6.928 0 0 0 808.716 55.811 Q 806.562 54.442 802.068 53.338 A 60.909 60.909 0 0 0 800.049 52.881 Q 795.295 51.884 791.775 50.466 A 30.36 30.36 0 0 1 789.941 49.658 A 20.441 20.441 0 0 1 785.646 46.936 A 12.193 12.193 0 0 1 781.055 37.207 Q 781.055 30.371 786.816 25.781 Q 792.578 21.191 801.465 21.191 A 31.174 31.174 0 0 1 807.994 21.837 Q 812.285 22.756 815.56 24.982 A 18.9 18.9 0 0 1 816.772 25.879 A 15.573 15.573 0 0 1 821.056 31.073 Q 822.583 34.136 822.607 37.917 A 19.041 19.041 0 0 1 822.607 38.037 Z M 529.883 29.688 L 502.783 65.527 L 530.908 65.527 L 530.908 75 L 488.037 75 L 488.037 67.236 L 514.844 31.738 L 488.525 31.738 L 488.525 22.168 L 529.883 22.168 L 529.883 29.688 Z M 696.973 75 L 684.863 75 Q 684.219 73.752 683.708 71.209 A 40.514 40.514 0 0 1 683.496 70.068 A 18.423 18.423 0 0 1 670.139 75.971 A 22.455 22.455 0 0 1 669.629 75.977 A 22.778 22.778 0 0 1 663.752 75.256 A 16.956 16.956 0 0 1 656.641 71.436 A 15.096 15.096 0 0 1 652.726 66.027 A 14.978 14.978 0 0 1 651.611 60.205 A 18.076 18.076 0 0 1 652.457 54.532 A 14.345 14.345 0 0 1 657.886 47.241 Q 664.16 42.725 675.83 42.725 L 683.105 42.725 L 683.105 39.258 Q 683.105 35.156 680.811 32.69 A 7.165 7.165 0 0 0 677.753 30.785 Q 676.59 30.4 675.171 30.279 A 15.907 15.907 0 0 0 673.828 30.225 A 13.271 13.271 0 0 0 670.899 30.531 A 9.232 9.232 0 0 0 667.188 32.251 A 7.054 7.054 0 0 0 665.488 34.117 A 6.173 6.173 0 0 0 664.6 37.402 L 652.734 37.402 A 12.876 12.876 0 0 1 654.92 30.257 A 16.331 16.331 0 0 1 655.615 29.272 A 18.192 18.192 0 0 1 660.966 24.597 A 22.974 22.974 0 0 1 663.452 23.34 A 26.106 26.106 0 0 1 671.169 21.361 A 32.142 32.142 0 0 1 674.512 21.191 A 29.922 29.922 0 0 1 680.663 21.787 Q 684.487 22.59 687.437 24.477 A 17.484 17.484 0 0 1 689.307 25.854 A 15.565 15.565 0 0 1 694.607 35.213 A 22.671 22.671 0 0 1 694.971 38.965 L 694.971 62.793 A 41.459 41.459 0 0 0 695.186 67.161 Q 695.417 69.336 695.896 71.154 A 17.54 17.54 0 0 0 696.973 74.17 L 696.973 75 Z M 465.869 27.051 L 465.869 0 L 477.734 0 L 477.734 75 L 466.992 75 L 466.406 69.531 Q 461.084 75.977 452.197 75.977 Q 442.92 75.977 437.183 68.506 A 25.804 25.804 0 0 1 432.891 59.732 Q 431.445 54.639 431.445 48.193 A 42.774 42.774 0 0 1 432.177 40.041 Q 433.481 33.328 437.109 28.589 A 17.923 17.923 0 0 1 450.116 21.293 A 22.891 22.891 0 0 1 452.295 21.191 A 19.536 19.536 0 0 1 458.808 22.234 A 16.696 16.696 0 0 1 465.869 27.051 Z M 563.916 49.951 L 563.916 48.486 A 35.138 35.138 0 0 1 564.777 40.557 A 28.761 28.761 0 0 1 566.968 34.351 A 24.03 24.03 0 0 1 572.182 27.23 A 22.547 22.547 0 0 1 575.537 24.658 A 22.655 22.655 0 0 1 587.842 21.191 A 27.141 27.141 0 0 1 594.681 22.005 A 18.839 18.839 0 0 1 604.517 28.076 Q 609.464 33.865 610.251 43.693 A 48.424 48.424 0 0 1 610.4 47.559 L 610.4 52.344 L 575.879 52.344 A 20.067 20.067 0 0 0 576.773 56.953 A 14.162 14.162 0 0 0 580.249 62.695 A 12.964 12.964 0 0 0 589.13 66.487 A 17.149 17.149 0 0 0 589.893 66.504 A 15.867 15.867 0 0 0 601.973 61.321 A 20.296 20.296 0 0 0 603.174 59.912 L 609.57 66.016 Q 606.396 70.752 601.099 73.364 Q 595.801 75.977 589.209 75.977 A 29.112 29.112 0 0 1 580.75 74.804 A 22.906 22.906 0 0 1 570.923 68.872 A 23.847 23.847 0 0 1 564.44 56.061 A 34.105 34.105 0 0 1 563.916 49.951 Z M 172.461 9.326 L 184.326 9.326 L 184.326 22.168 L 193.652 22.168 L 193.652 30.957 L 184.326 30.957 L 184.326 60.449 Q 184.326 63.477 185.522 64.819 A 3.36 3.36 0 0 0 186.744 65.663 Q 187.92 66.162 189.795 66.162 A 18.278 18.278 0 0 0 193.945 65.674 L 193.945 74.854 A 31.041 31.041 0 0 1 188.813 75.838 A 26.344 26.344 0 0 1 186.133 75.977 Q 172.461 75.977 172.461 60.889 L 172.461 30.957 L 163.77 30.957 L 163.77 22.168 L 172.461 22.168 L 172.461 9.326 Z M 285.889 21.875 L 285.84 33.008 Q 283.496 32.617 281.006 32.617 A 16.323 16.323 0 0 0 276.847 33.11 A 9.921 9.921 0 0 0 270.02 38.867 L 270.02 75 L 258.154 75 L 258.154 22.168 L 269.482 22.168 L 269.775 28.076 Q 274.067 21.2 281.67 21.191 A 17.013 17.013 0 0 1 281.689 21.191 Q 283.62 21.191 285.042 21.586 A 7.481 7.481 0 0 1 285.889 21.875 Z M 647.314 21.875 L 647.266 33.008 Q 644.922 32.617 642.432 32.617 A 16.323 16.323 0 0 0 638.272 33.11 A 9.921 9.921 0 0 0 631.445 38.867 L 631.445 75 L 619.58 75 L 619.58 22.168 L 630.908 22.168 L 631.201 28.076 Q 635.493 21.2 643.096 21.191 A 17.013 17.013 0 0 1 643.115 21.191 Q 645.045 21.191 646.468 21.586 A 7.481 7.481 0 0 1 647.314 21.875 Z M 199.023 48.682 L 199.023 48.096 A 33.799 33.799 0 0 1 199.997 39.848 A 28.661 28.661 0 0 1 202.1 34.106 A 23.459 23.459 0 0 1 206.99 27.381 A 21.699 21.699 0 0 1 210.742 24.536 A 23.484 23.484 0 0 1 220.668 21.329 A 29.207 29.207 0 0 1 223.535 21.191 A 27.079 27.079 0 0 1 231.559 22.328 A 21.726 21.726 0 0 1 240.894 28.076 A 24.918 24.918 0 0 1 247.237 39.979 A 35.053 35.053 0 0 1 248.096 46.338 L 248.145 49.121 A 34.842 34.842 0 0 1 247.297 56.953 A 28.508 28.508 0 0 1 245.142 63.086 Q 242.139 69.238 236.548 72.607 A 23.518 23.518 0 0 1 226.808 75.81 A 29.532 29.532 0 0 1 223.633 75.977 A 27.135 27.135 0 0 1 215.432 74.794 A 21.601 21.601 0 0 1 205.737 68.53 A 25.308 25.308 0 0 1 199.893 56.966 A 37.314 37.314 0 0 1 199.023 48.682 Z M 104.346 22.168 L 104.346 75 L 92.48 75 L 92.48 22.168 L 104.346 22.168 Z M 553.027 22.168 L 553.027 75 L 541.162 75 L 541.162 22.168 L 553.027 22.168 Z M 898.145 22.168 L 898.145 75 L 886.279 75 L 886.279 22.168 L 898.145 22.168 Z M 210.889 49.121 A 31.886 31.886 0 0 0 211.251 54.091 Q 211.668 56.725 212.562 58.856 A 14.884 14.884 0 0 0 214.258 61.89 A 10.725 10.725 0 0 0 221.996 66.413 A 14.306 14.306 0 0 0 223.633 66.504 A 12.307 12.307 0 0 0 227.919 65.789 Q 230.945 64.673 232.983 61.816 A 15.512 15.512 0 0 0 235.086 57.491 Q 235.746 55.424 236.055 52.902 A 39.589 39.589 0 0 0 236.328 48.096 A 30.182 30.182 0 0 0 235.926 43.01 Q 235.454 40.253 234.428 38.03 A 15.16 15.16 0 0 0 232.886 35.4 A 11.396 11.396 0 0 0 229.009 31.978 Q 226.792 30.812 224.011 30.721 A 14.525 14.525 0 0 0 223.535 30.713 Q 217.725 30.713 214.307 35.327 A 14.897 14.897 0 0 0 212.174 39.579 Q 210.889 43.491 210.889 49.121 Z M 465.869 59.814 L 465.869 37.256 A 12.276 12.276 0 0 0 462.927 33.45 Q 460.489 31.385 456.992 30.998 A 15.169 15.169 0 0 0 455.322 30.908 A 11.553 11.553 0 0 0 451.242 31.598 Q 448.346 32.683 446.436 35.474 Q 443.44 39.851 443.316 48.469 A 52.274 52.274 0 0 0 443.311 49.219 A 34.036 34.036 0 0 0 443.613 53.908 Q 443.957 56.372 444.69 58.391 A 15.056 15.056 0 0 0 446.411 61.792 A 9.852 9.852 0 0 0 453.503 66.198 A 13.049 13.049 0 0 0 455.225 66.309 Q 461.754 66.309 465.137 61.079 A 15.287 15.287 0 0 0 465.869 59.814 Z M 390.137 43.652 L 412.744 43.652 L 412.744 42.773 Q 412.48 38.744 411.121 36.044 A 10.089 10.089 0 0 0 409.57 33.765 A 9.128 9.128 0 0 0 404.392 30.941 A 13.439 13.439 0 0 0 401.855 30.713 A 11.314 11.314 0 0 0 398.07 31.321 A 9.682 9.682 0 0 0 393.97 34.131 Q 390.967 37.549 390.137 43.652 Z M 576.074 43.652 L 598.682 43.652 L 598.682 42.773 Q 598.417 38.744 597.059 36.044 A 10.089 10.089 0 0 0 595.508 33.765 A 9.128 9.128 0 0 0 590.329 30.941 A 13.439 13.439 0 0 0 587.793 30.713 A 11.314 11.314 0 0 0 584.008 31.321 A 9.682 9.682 0 0 0 579.907 34.131 Q 576.904 37.549 576.074 43.652 Z M 683.105 60.156 L 683.105 50.195 L 676.709 50.195 A 30.591 30.591 0 0 0 673.26 50.377 Q 669.407 50.815 667.064 52.313 A 8.876 8.876 0 0 0 666.797 52.49 A 7.285 7.285 0 0 0 663.558 57.719 A 9.599 9.599 0 0 0 663.477 58.984 A 8.304 8.304 0 0 0 663.823 61.442 A 6.506 6.506 0 0 0 665.747 64.429 A 7.71 7.71 0 0 0 669.161 66.164 Q 670.307 66.437 671.647 66.454 A 14.113 14.113 0 0 0 671.826 66.455 A 13.497 13.497 0 0 0 678.442 64.746 Q 681.543 63.037 683.105 60.156 Z M 92.101 6.169 A 7.081 7.081 0 0 0 91.748 8.447 A 8.007 8.007 0 0 0 91.759 8.861 A 6.063 6.063 0 0 0 93.481 12.915 A 5.28 5.28 0 0 0 94.318 13.614 Q 95.249 14.241 96.483 14.505 A 9.347 9.347 0 0 0 98.437 14.697 A 11.243 11.243 0 0 0 98.774 14.692 Q 101.753 14.603 103.418 12.915 A 5.917 5.917 0 0 0 104.796 10.749 A 6.738 6.738 0 0 0 105.176 8.447 A 8.12 8.12 0 0 0 105.16 7.943 A 6.141 6.141 0 0 0 103.418 3.906 A 5.408 5.408 0 0 0 102.752 3.325 Q 101.769 2.599 100.437 2.303 A 9.217 9.217 0 0 0 98.437 2.1 A 11.115 11.115 0 0 0 98.126 2.104 Q 97.046 2.134 96.142 2.377 A 5.614 5.614 0 0 0 93.481 3.906 A 6.014 6.014 0 0 0 92.101 6.169 Z M 540.783 6.169 A 7.081 7.081 0 0 0 540.43 8.447 A 8.007 8.007 0 0 0 540.44 8.861 A 6.063 6.063 0 0 0 542.163 12.915 A 5.28 5.28 0 0 0 543 13.614 Q 543.93 14.241 545.165 14.505 A 9.347 9.347 0 0 0 547.119 14.697 A 11.243 11.243 0 0 0 547.456 14.692 Q 550.435 14.603 552.1 12.915 A 5.917 5.917 0 0 0 553.478 10.749 A 6.738 6.738 0 0 0 553.857 8.447 A 8.12 8.12 0 0 0 553.842 7.943 A 6.141 6.141 0 0 0 552.1 3.906 A 5.408 5.408 0 0 0 551.434 3.325 Q 550.451 2.599 549.119 2.303 A 9.217 9.217 0 0 0 547.119 2.1 A 11.115 11.115 0 0 0 546.807 2.104 Q 545.728 2.134 544.824 2.377 A 5.614 5.614 0 0 0 542.163 3.906 A 6.014 6.014 0 0 0 540.783 6.169 Z M 885.9 6.169 A 7.081 7.081 0 0 0 885.547 8.447 A 8.007 8.007 0 0 0 885.557 8.861 A 6.063 6.063 0 0 0 887.28 12.915 A 5.28 5.28 0 0 0 888.117 13.614 Q 889.048 14.241 890.282 14.505 A 9.347 9.347 0 0 0 892.236 14.697 A 11.243 11.243 0 0 0 892.573 14.692 Q 895.552 14.603 897.217 12.915 A 5.917 5.917 0 0 0 898.595 10.749 A 6.738 6.738 0 0 0 898.975 8.447 A 8.12 8.12 0 0 0 898.959 7.943 A 6.141 6.141 0 0 0 897.217 3.906 A 5.408 5.408 0 0 0 896.551 3.325 Q 895.568 2.599 894.236 2.303 A 9.217 9.217 0 0 0 892.236 2.1 A 11.115 11.115 0 0 0 891.924 2.104 Q 890.845 2.134 889.941 2.377 A 5.614 5.614 0 0 0 887.28 3.906 A 6.014 6.014 0 0 0 885.9 6.169 Z" vector-effect="non-scaling-stroke"/></g></svg>