<svg id="name" width="756" height="283" viewBox="0 0 756 283" fill="none" xmlns="http://www.w3.org/2000/svg">
<mask id="path-1-outside-1" maskUnits="userSpaceOnUse" x="-0.12793" y="0.84906" width="757" height="282" fill="black">
<rect fill="white" x="-0.12793" y="0.84906" width="757" height="282"/>
<path d="M30.6592 72.2133L32.4365 84.4008L35.0391 73.4194L53.3203 8.92719H63.6035L81.4404 73.4194L83.9795 84.5912L85.9473 72.1498L100.293 8.92719H112.544L90.1367 101.349H79.0283L59.9854 34.0004L58.5254 26.9545L57.0654 34.0004L37.3242 101.349H26.2158L3.87207 8.92719H16.0596L30.6592 72.2133Z"/>
<path d="M137.046 101.349H125.303V32.6674H137.046V101.349ZM124.351 14.4496C124.351 12.5453 124.922 10.9373 126.064 9.62543C127.249 8.31358 128.984 7.65765 131.27 7.65765C133.555 7.65765 135.29 8.31358 136.475 9.62543C137.66 10.9373 138.252 12.5453 138.252 14.4496C138.252 16.3539 137.66 17.9409 136.475 19.2104C135.29 20.4799 133.555 21.1147 131.27 21.1147C128.984 21.1147 127.249 20.4799 126.064 19.2104C124.922 17.9409 124.351 16.3539 124.351 14.4496Z"/>
<path d="M175.068 69.5473L167.705 77.228V101.349H155.962V3.84906H167.705V62.8188L173.989 55.2651L195.381 32.6674H209.663L182.939 61.3588L212.773 101.349H198.999L175.068 69.5473Z"/>
<path d="M237.72 16.0366V32.6674H250.542V41.7446H237.72V84.3373C237.72 87.088 238.291 89.1616 239.434 90.558C240.576 91.9122 242.523 92.5893 245.273 92.5893C246.628 92.5893 248.49 92.3354 250.859 91.8276V101.349C247.77 102.195 244.766 102.619 241.846 102.619C236.598 102.619 232.642 101.032 229.976 97.8578C227.31 94.684 225.977 90.1772 225.977 84.3373V41.7446H213.472V32.6674H225.977V16.0366H237.72Z"/>
<path d="M259.937 66.3735C259.937 59.645 261.248 53.5935 263.872 48.2192C266.538 42.8448 270.22 38.6977 274.917 35.7778C279.657 32.8578 285.052 31.3979 291.104 31.3979C300.456 31.3979 308.009 34.6352 313.765 41.1098C319.562 47.5844 322.461 56.1961 322.461 66.9448V67.77C322.461 74.4562 321.17 80.4653 318.589 85.7973C316.05 91.087 312.389 95.213 307.607 98.1752C302.868 101.137 297.409 102.619 291.23 102.619C281.921 102.619 274.367 99.3813 268.569 92.9067C262.814 86.4321 259.937 77.8627 259.937 67.1987V66.3735ZM271.743 67.77C271.743 75.3871 273.499 81.5021 277.012 86.1147C280.566 90.7273 285.306 93.0336 291.23 93.0336C297.197 93.0336 301.937 90.7062 305.449 86.0512C308.962 81.3539 310.718 74.7947 310.718 66.3735C310.718 58.8409 308.919 52.7472 305.322 48.0922C301.768 43.395 297.028 41.0463 291.104 41.0463C285.306 41.0463 280.63 43.3526 277.075 47.9653C273.521 52.5779 271.743 59.1795 271.743 67.77Z"/>
<path d="M370.386 43.2045C368.608 42.9083 366.683 42.7602 364.609 42.7602C356.908 42.7602 351.681 46.0398 348.931 52.5991V101.349H337.188V32.6674H348.613L348.804 40.602C352.655 34.4659 358.114 31.3979 365.181 31.3979C367.466 31.3979 369.201 31.6941 370.386 32.2866V43.2045Z"/>
<path d="M34.2139 210.375L22.915 222.119V253.349H10.7275V160.927H22.915V206.63L63.9844 160.927H78.7109L42.3389 201.743L81.5674 253.349H66.9678L34.2139 210.375Z"/>
<path d="M143.14 241.352C140.135 246.007 136.2 249.477 131.333 251.762H131.396L127.715 254.619C122.933 258.47 120.542 262.215 120.542 265.854C120.542 268.901 122.192 270.424 125.493 270.424C127.524 270.424 129.64 269.874 131.841 268.774L132.666 276.455C129.704 278.317 126.318 279.247 122.51 279.247C118.743 279.247 115.76 278.147 113.56 275.947C111.401 273.746 110.322 270.826 110.322 267.187C110.322 262.617 112.396 258.427 116.543 254.619C107.318 254.449 99.8698 251.318 94.1992 245.224C88.571 239.088 85.7568 230.963 85.7568 220.849V218.754C85.7568 211.941 87.0475 205.869 89.6289 200.537C92.2526 195.162 95.8919 190.973 100.547 187.968C105.244 184.921 110.322 183.398 115.781 183.398C124.71 183.398 131.65 186.339 136.602 192.221C141.553 198.103 144.028 206.525 144.028 217.485V222.372H97.5C97.6693 229.143 99.637 234.623 103.403 238.813C107.212 242.96 112.036 245.034 117.876 245.034C122.023 245.034 125.535 244.187 128.413 242.495C131.291 240.802 133.809 238.559 135.967 235.766L143.14 241.352ZM115.781 193.046C111.042 193.046 107.064 194.781 103.848 198.251C100.632 201.679 98.6426 206.503 97.8809 212.724H132.285V211.835C131.947 205.869 130.339 201.256 127.461 197.997C124.583 194.697 120.69 193.046 115.781 193.046Z"/>
<path d="M154.819 218.437C154.819 207.9 157.316 199.436 162.31 193.046C167.303 186.614 173.841 183.398 181.924 183.398C189.964 183.398 196.333 186.149 201.03 191.65V155.849H212.773V253.349H201.982L201.411 245.986C196.714 251.741 190.176 254.619 181.797 254.619C173.841 254.619 167.345 251.36 162.31 244.843C157.316 238.326 154.819 229.82 154.819 219.326V218.437ZM166.562 219.77C166.562 227.556 168.171 233.65 171.387 238.051C174.603 242.452 179.046 244.653 184.717 244.653C192.165 244.653 197.603 241.31 201.03 234.623V203.076C197.518 196.601 192.122 193.364 184.844 193.364C179.089 193.364 174.603 195.585 171.387 200.029C168.171 204.472 166.562 211.053 166.562 219.77Z"/>
<path d="M242.1 243.764H282.28V253.349H227.754V244.716L265.649 194.379H228.325V184.667H280.376V192.983L242.1 243.764Z"/>
<path d="M308.306 253.349H296.562V184.667H308.306V253.349ZM295.61 166.45C295.61 164.545 296.182 162.937 297.324 161.625C298.509 160.314 300.244 159.658 302.529 159.658C304.814 159.658 306.549 160.314 307.734 161.625C308.919 162.937 309.512 164.545 309.512 166.45C309.512 168.354 308.919 169.941 307.734 171.21C306.549 172.48 304.814 173.115 302.529 173.115C300.244 173.115 298.509 172.48 297.324 171.21C296.182 169.941 295.61 168.354 295.61 166.45Z"/>
<path d="M355.659 254.619C346.349 254.619 338.774 251.572 332.935 245.478C327.095 239.342 324.175 231.153 324.175 220.913V218.754C324.175 211.941 325.465 205.869 328.047 200.537C330.671 195.162 334.31 190.973 338.965 187.968C343.662 184.921 348.74 183.398 354.199 183.398C363.128 183.398 370.068 186.339 375.02 192.221C379.971 198.103 382.446 206.525 382.446 217.485V222.372H335.918C336.087 229.143 338.055 234.623 341.821 238.813C345.63 242.96 350.454 245.034 356.294 245.034C360.441 245.034 363.953 244.187 366.831 242.495C369.709 240.802 372.227 238.559 374.385 235.766L381.558 241.352C375.802 250.196 367.17 254.619 355.659 254.619ZM354.199 193.046C349.46 193.046 345.482 194.781 342.266 198.251C339.049 201.679 337.061 206.503 336.299 212.724H370.703V211.835C370.365 205.869 368.757 201.256 365.879 197.997C363.001 194.697 359.108 193.046 354.199 193.046Z"/>
<path d="M429.292 195.205C427.515 194.908 425.589 194.76 423.516 194.76C415.814 194.76 410.588 198.04 407.837 204.599V253.349H396.094V184.667H407.52L407.71 192.602C411.561 186.466 417.02 183.398 424.087 183.398C426.372 183.398 428.107 183.694 429.292 184.287V195.205Z"/>
<path d="M480.01 253.349C479.333 251.995 478.783 249.583 478.359 246.113C472.9 251.783 466.383 254.619 458.809 254.619C452.038 254.619 446.473 252.714 442.114 248.906C437.798 245.055 435.64 240.188 435.64 234.306C435.64 227.154 438.348 221.611 443.765 217.675C449.224 213.697 456.883 211.708 466.743 211.708H478.169V206.313C478.169 202.208 476.942 198.95 474.487 196.538C472.033 194.083 468.415 192.856 463.633 192.856C459.443 192.856 455.931 193.914 453.096 196.03C450.26 198.146 448.843 200.706 448.843 203.71H437.036C437.036 200.283 438.242 196.982 440.654 193.808C443.109 190.592 446.41 188.053 450.557 186.191C454.746 184.329 459.338 183.398 464.331 183.398C472.244 183.398 478.444 185.387 482.93 189.365C487.415 193.3 489.743 198.738 489.912 205.678V237.289C489.912 243.595 490.716 248.609 492.324 252.333V253.349H480.01ZM460.522 244.399C464.204 244.399 467.695 243.447 470.996 241.542C474.297 239.638 476.688 237.163 478.169 234.116V220.024H468.965C454.577 220.024 447.383 224.234 447.383 232.656C447.383 236.337 448.61 239.215 451.064 241.289C453.519 243.362 456.672 244.399 460.522 244.399Z"/>
<path d="M569.131 237.163L582.334 184.667H594.077L574.082 253.349H564.561L547.866 201.298L531.616 253.349H522.095L502.163 184.667H513.843L527.363 236.083L543.359 184.667H552.817L569.131 237.163Z"/>
<path d="M646.064 235.131C646.064 231.957 644.858 229.503 642.446 227.768C640.076 225.991 635.908 224.467 629.941 223.198C624.017 221.928 619.299 220.405 615.786 218.627C612.316 216.85 609.735 214.734 608.042 212.28C606.392 209.825 605.566 206.905 605.566 203.52C605.566 197.892 607.936 193.131 612.676 189.238C617.458 185.345 623.551 183.398 630.957 183.398C638.743 183.398 645.049 185.408 649.873 189.428C654.74 193.448 657.173 198.59 657.173 204.853H645.366C645.366 201.637 643.991 198.865 641.24 196.538C638.532 194.21 635.104 193.046 630.957 193.046C626.683 193.046 623.34 193.977 620.928 195.839C618.516 197.701 617.31 200.135 617.31 203.139C617.31 205.974 618.431 208.111 620.674 209.55C622.917 210.989 626.958 212.364 632.798 213.676C638.68 214.988 643.441 216.554 647.08 218.373C650.719 220.193 653.407 222.394 655.142 224.975C656.919 227.514 657.808 230.624 657.808 234.306C657.808 240.442 655.353 245.372 650.444 249.096C645.535 252.778 639.167 254.619 631.338 254.619C625.837 254.619 620.97 253.645 616.738 251.699C612.507 249.752 609.185 247.044 606.772 243.574C604.403 240.061 603.218 236.274 603.218 232.211H614.961C615.173 236.147 616.738 239.278 619.658 241.606C622.62 243.891 626.514 245.034 631.338 245.034C635.781 245.034 639.336 244.145 642.002 242.368C644.71 240.548 646.064 238.136 646.064 235.131Z"/>
<path d="M692.275 221.547L684.912 229.228V253.349H673.169V155.849H684.912V214.819L691.196 207.265L712.588 184.667H726.87L700.146 213.359L729.98 253.349H716.206L692.275 221.547Z"/>
<path d="M751.753 253.349H740.01V184.667H751.753V253.349ZM739.058 166.45C739.058 164.545 739.629 162.937 740.771 161.625C741.956 160.314 743.691 159.658 745.977 159.658C748.262 159.658 749.997 160.314 751.182 161.625C752.367 162.937 752.959 164.545 752.959 166.45C752.959 168.354 752.367 169.941 751.182 171.21C749.997 172.48 748.262 173.115 745.977 173.115C743.691 173.115 741.956 172.48 740.771 171.21C739.629 169.941 739.058 168.354 739.058 166.45Z"/>
</mask>
<path d="M30.6592 72.2133L32.4365 84.4008L35.0391 73.4194L53.3203 8.92719H63.6035L81.4404 73.4194L83.9795 84.5912L85.9473 72.1498L100.293 8.92719H112.544L90.1367 101.349H79.0283L59.9854 34.0004L58.5254 26.9545L57.0654 34.0004L37.3242 101.349H26.2158L3.87207 8.92719H16.0596L30.6592 72.2133Z" stroke="black" stroke-width="6" mask="url(#path-1-outside-1)"/>
<path d="M137.046 101.349H125.303V32.6674H137.046V101.349ZM124.351 14.4496C124.351 12.5453 124.922 10.9373 126.064 9.62543C127.249 8.31358 128.984 7.65765 131.27 7.65765C133.555 7.65765 135.29 8.31358 136.475 9.62543C137.66 10.9373 138.252 12.5453 138.252 14.4496C138.252 16.3539 137.66 17.9409 136.475 19.2104C135.29 20.4799 133.555 21.1147 131.27 21.1147C128.984 21.1147 127.249 20.4799 126.064 19.2104C124.922 17.9409 124.351 16.3539 124.351 14.4496Z" stroke="black" stroke-width="6" mask="url(#path-1-outside-1)"/>
<path d="M175.068 69.5473L167.705 77.228V101.349H155.962V3.84906H167.705V62.8188L173.989 55.2651L195.381 32.6674H209.663L182.939 61.3588L212.773 101.349H198.999L175.068 69.5473Z" stroke="black" stroke-width="6" mask="url(#path-1-outside-1)"/>
<path d="M237.72 16.0366V32.6674H250.542V41.7446H237.72V84.3373C237.72 87.088 238.291 89.1616 239.434 90.558C240.576 91.9122 242.523 92.5893 245.273 92.5893C246.628 92.5893 248.49 92.3354 250.859 91.8276V101.349C247.77 102.195 244.766 102.619 241.846 102.619C236.598 102.619 232.642 101.032 229.976 97.8578C227.31 94.684 225.977 90.1772 225.977 84.3373V41.7446H213.472V32.6674H225.977V16.0366H237.72Z" stroke="black" stroke-width="6" mask="url(#path-1-outside-1)"/>
<path d="M259.937 66.3735C259.937 59.645 261.248 53.5935 263.872 48.2192C266.538 42.8448 270.22 38.6977 274.917 35.7778C279.657 32.8578 285.052 31.3979 291.104 31.3979C300.456 31.3979 308.009 34.6352 313.765 41.1098C319.562 47.5844 322.461 56.1961 322.461 66.9448V67.77C322.461 74.4562 321.17 80.4653 318.589 85.7973C316.05 91.087 312.389 95.213 307.607 98.1752C302.868 101.137 297.409 102.619 291.23 102.619C281.921 102.619 274.367 99.3813 268.569 92.9067C262.814 86.4321 259.937 77.8627 259.937 67.1987V66.3735ZM271.743 67.77C271.743 75.3871 273.499 81.5021 277.012 86.1147C280.566 90.7273 285.306 93.0336 291.23 93.0336C297.197 93.0336 301.937 90.7062 305.449 86.0512C308.962 81.3539 310.718 74.7947 310.718 66.3735C310.718 58.8409 308.919 52.7472 305.322 48.0922C301.768 43.395 297.028 41.0463 291.104 41.0463C285.306 41.0463 280.63 43.3526 277.075 47.9653C273.521 52.5779 271.743 59.1795 271.743 67.77Z" stroke="black" stroke-width="6" mask="url(#path-1-outside-1)"/>
<path d="M370.386 43.2045C368.608 42.9083 366.683 42.7602 364.609 42.7602C356.908 42.7602 351.681 46.0398 348.931 52.5991V101.349H337.188V32.6674H348.613L348.804 40.602C352.655 34.4659 358.114 31.3979 365.181 31.3979C367.466 31.3979 369.201 31.6941 370.386 32.2866V43.2045Z" stroke="black" stroke-width="6" mask="url(#path-1-outside-1)"/>
<path d="M34.2139 210.375L22.915 222.119V253.349H10.7275V160.927H22.915V206.63L63.9844 160.927H78.7109L42.3389 201.743L81.5674 253.349H66.9678L34.2139 210.375Z" stroke="black" stroke-width="6" mask="url(#path-1-outside-1)"/>
<path d="M143.14 241.352C140.135 246.007 136.2 249.477 131.333 251.762H131.396L127.715 254.619C122.933 258.47 120.542 262.215 120.542 265.854C120.542 268.901 122.192 270.424 125.493 270.424C127.524 270.424 129.64 269.874 131.841 268.774L132.666 276.455C129.704 278.317 126.318 279.247 122.51 279.247C118.743 279.247 115.76 278.147 113.56 275.947C111.401 273.746 110.322 270.826 110.322 267.187C110.322 262.617 112.396 258.427 116.543 254.619C107.318 254.449 99.8698 251.318 94.1992 245.224C88.571 239.088 85.7568 230.963 85.7568 220.849V218.754C85.7568 211.941 87.0475 205.869 89.6289 200.537C92.2526 195.162 95.8919 190.973 100.547 187.968C105.244 184.921 110.322 183.398 115.781 183.398C124.71 183.398 131.65 186.339 136.602 192.221C141.553 198.103 144.028 206.525 144.028 217.485V222.372H97.5C97.6693 229.143 99.637 234.623 103.403 238.813C107.212 242.96 112.036 245.034 117.876 245.034C122.023 245.034 125.535 244.187 128.413 242.495C131.291 240.802 133.809 238.559 135.967 235.766L143.14 241.352ZM115.781 193.046C111.042 193.046 107.064 194.781 103.848 198.251C100.632 201.679 98.6426 206.503 97.8809 212.724H132.285V211.835C131.947 205.869 130.339 201.256 127.461 197.997C124.583 194.697 120.69 193.046 115.781 193.046Z" stroke="black" stroke-width="6" mask="url(#path-1-outside-1)"/>
<path d="M154.819 218.437C154.819 207.9 157.316 199.436 162.31 193.046C167.303 186.614 173.841 183.398 181.924 183.398C189.964 183.398 196.333 186.149 201.03 191.65V155.849H212.773V253.349H201.982L201.411 245.986C196.714 251.741 190.176 254.619 181.797 254.619C173.841 254.619 167.345 251.36 162.31 244.843C157.316 238.326 154.819 229.82 154.819 219.326V218.437ZM166.562 219.77C166.562 227.556 168.171 233.65 171.387 238.051C174.603 242.452 179.046 244.653 184.717 244.653C192.165 244.653 197.603 241.31 201.03 234.623V203.076C197.518 196.601 192.122 193.364 184.844 193.364C179.089 193.364 174.603 195.585 171.387 200.029C168.171 204.472 166.562 211.053 166.562 219.77Z" stroke="black" stroke-width="6" mask="url(#path-1-outside-1)"/>
<path d="M242.1 243.764H282.28V253.349H227.754V244.716L265.649 194.379H228.325V184.667H280.376V192.983L242.1 243.764Z" stroke="black" stroke-width="6" mask="url(#path-1-outside-1)"/>
<path d="M308.306 253.349H296.562V184.667H308.306V253.349ZM295.61 166.45C295.61 164.545 296.182 162.937 297.324 161.625C298.509 160.314 300.244 159.658 302.529 159.658C304.814 159.658 306.549 160.314 307.734 161.625C308.919 162.937 309.512 164.545 309.512 166.45C309.512 168.354 308.919 169.941 307.734 171.21C306.549 172.48 304.814 173.115 302.529 173.115C300.244 173.115 298.509 172.48 297.324 171.21C296.182 169.941 295.61 168.354 295.61 166.45Z" stroke="black" stroke-width="6" mask="url(#path-1-outside-1)"/>
<path d="M355.659 254.619C346.349 254.619 338.774 251.572 332.935 245.478C327.095 239.342 324.175 231.153 324.175 220.913V218.754C324.175 211.941 325.465 205.869 328.047 200.537C330.671 195.162 334.31 190.973 338.965 187.968C343.662 184.921 348.74 183.398 354.199 183.398C363.128 183.398 370.068 186.339 375.02 192.221C379.971 198.103 382.446 206.525 382.446 217.485V222.372H335.918C336.087 229.143 338.055 234.623 341.821 238.813C345.63 242.96 350.454 245.034 356.294 245.034C360.441 245.034 363.953 244.187 366.831 242.495C369.709 240.802 372.227 238.559 374.385 235.766L381.558 241.352C375.802 250.196 367.17 254.619 355.659 254.619ZM354.199 193.046C349.46 193.046 345.482 194.781 342.266 198.251C339.049 201.679 337.061 206.503 336.299 212.724H370.703V211.835C370.365 205.869 368.757 201.256 365.879 197.997C363.001 194.697 359.108 193.046 354.199 193.046Z" stroke="black" stroke-width="6" mask="url(#path-1-outside-1)"/>
<path d="M429.292 195.205C427.515 194.908 425.589 194.76 423.516 194.76C415.814 194.76 410.588 198.04 407.837 204.599V253.349H396.094V184.667H407.52L407.71 192.602C411.561 186.466 417.02 183.398 424.087 183.398C426.372 183.398 428.107 183.694 429.292 184.287V195.205Z" stroke="black" stroke-width="6" mask="url(#path-1-outside-1)"/>
<path d="M480.01 253.349C479.333 251.995 478.783 249.583 478.359 246.113C472.9 251.783 466.383 254.619 458.809 254.619C452.038 254.619 446.473 252.714 442.114 248.906C437.798 245.055 435.64 240.188 435.64 234.306C435.64 227.154 438.348 221.611 443.765 217.675C449.224 213.697 456.883 211.708 466.743 211.708H478.169V206.313C478.169 202.208 476.942 198.95 474.487 196.538C472.033 194.083 468.415 192.856 463.633 192.856C459.443 192.856 455.931 193.914 453.096 196.03C450.26 198.146 448.843 200.706 448.843 203.71H437.036C437.036 200.283 438.242 196.982 440.654 193.808C443.109 190.592 446.41 188.053 450.557 186.191C454.746 184.329 459.338 183.398 464.331 183.398C472.244 183.398 478.444 185.387 482.93 189.365C487.415 193.3 489.743 198.738 489.912 205.678V237.289C489.912 243.595 490.716 248.609 492.324 252.333V253.349H480.01ZM460.522 244.399C464.204 244.399 467.695 243.447 470.996 241.542C474.297 239.638 476.688 237.163 478.169 234.116V220.024H468.965C454.577 220.024 447.383 224.234 447.383 232.656C447.383 236.337 448.61 239.215 451.064 241.289C453.519 243.362 456.672 244.399 460.522 244.399Z" stroke="black" stroke-width="6" mask="url(#path-1-outside-1)"/>
<path d="M569.131 237.163L582.334 184.667H594.077L574.082 253.349H564.561L547.866 201.298L531.616 253.349H522.095L502.163 184.667H513.843L527.363 236.083L543.359 184.667H552.817L569.131 237.163Z" stroke="black" stroke-width="6" mask="url(#path-1-outside-1)"/>
<path d="M646.064 235.131C646.064 231.957 644.858 229.503 642.446 227.768C640.076 225.991 635.908 224.467 629.941 223.198C624.017 221.928 619.299 220.405 615.786 218.627C612.316 216.85 609.735 214.734 608.042 212.28C606.392 209.825 605.566 206.905 605.566 203.52C605.566 197.892 607.936 193.131 612.676 189.238C617.458 185.345 623.551 183.398 630.957 183.398C638.743 183.398 645.049 185.408 649.873 189.428C654.74 193.448 657.173 198.59 657.173 204.853H645.366C645.366 201.637 643.991 198.865 641.24 196.538C638.532 194.21 635.104 193.046 630.957 193.046C626.683 193.046 623.34 193.977 620.928 195.839C618.516 197.701 617.31 200.135 617.31 203.139C617.31 205.974 618.431 208.111 620.674 209.55C622.917 210.989 626.958 212.364 632.798 213.676C638.68 214.988 643.441 216.554 647.08 218.373C650.719 220.193 653.407 222.394 655.142 224.975C656.919 227.514 657.808 230.624 657.808 234.306C657.808 240.442 655.353 245.372 650.444 249.096C645.535 252.778 639.167 254.619 631.338 254.619C625.837 254.619 620.97 253.645 616.738 251.699C612.507 249.752 609.185 247.044 606.772 243.574C604.403 240.061 603.218 236.274 603.218 232.211H614.961C615.173 236.147 616.738 239.278 619.658 241.606C622.62 243.891 626.514 245.034 631.338 245.034C635.781 245.034 639.336 244.145 642.002 242.368C644.71 240.548 646.064 238.136 646.064 235.131Z" stroke="black" stroke-width="6" mask="url(#path-1-outside-1)"/>
<path d="M692.275 221.547L684.912 229.228V253.349H673.169V155.849H684.912V214.819L691.196 207.265L712.588 184.667H726.87L700.146 213.359L729.98 253.349H716.206L692.275 221.547Z" stroke="black" stroke-width="6" mask="url(#path-1-outside-1)"/>
<path d="M751.753 253.349H740.01V184.667H751.753V253.349ZM739.058 166.45C739.058 164.545 739.629 162.937 740.771 161.625C741.956 160.314 743.691 159.658 745.977 159.658C748.262 159.658 749.997 160.314 751.182 161.625C752.367 162.937 752.959 164.545 752.959 166.45C752.959 168.354 752.367 169.941 751.182 171.21C749.997 172.48 748.262 173.115 745.977 173.115C743.691 173.115 741.956 172.48 740.771 171.21C739.629 169.941 739.058 168.354 739.058 166.45Z" stroke="black" stroke-width="6" mask="url(#path-1-outside-1)"/>
</svg>
